<?xml version="1.0" encoding="utf-8"?>
<!-- Generator: Adobe Illustrator 25.1.0, SVG Export Plug-In . SVG Version: 6.00 Build 0)  -->
<svg version="1.1" id="Layer_1" xmlns="http://www.w3.org/2000/svg" xmlns:xlink="http://www.w3.org/1999/xlink" x="0px" y="0px"
	 viewBox="0 0 260 260" style="enable-background:new 0 0 260 260;" xml:space="preserve">
<style type="text/css">
	.st0{fill:#4C9838;}
	.st1{fill:#FFFFFF;}
</style>
<g>
	<g>
		<path class="st0" d="M220,260H40c-22.1,0-40-17.9-40-40V40C0,17.9,17.9,0,40,0h180c22.1,0,40,17.9,40,40v180
			C260,242.1,242.1,260,220,260z"/>
	</g>
	<g>
		<g>
			<path class="st1" d="M83.9,39c-17.4,0-31.6,19.7-31.6,44.1c0,20,9.5,36.8,22.5,42.2v86.4c0,5.1,4,9.3,9,9.3c5,0,9-4.2,9-9.3
				v-86.4c13-5.4,22.5-22.3,22.5-42.2C115.5,58.7,101.3,39,83.9,39z"/>
		</g>
		<g>
			<path class="st1" d="M207.7,43.6c0-2.5-2-4.6-4.5-4.6c-2.5,0-4.5,2.1-4.5,4.6v36.7c0,0,0,0,0,0h-18c0,0,0,0,0,0V43.6
				c0-2.5-2-4.6-4.5-4.6c-2.5,0-4.5,2.1-4.5,4.6v36.7c0,0,0,0,0,0h-18c0,0,0,0,0,0V43.6c0-2.5-2-4.6-4.5-4.6c-2.5,0-4.5,2.1-4.5,4.6
				v36.7c0,0,0,0,0,0h0V93c0,14.5,9.5,26.8,22.5,30.8v88c0,5.1,4,9.2,9,9.2c5,0,9-4.1,9-9.2v-88c13-3.9,22.5-16.2,22.5-30.8V80.3
				c0,0,0,0,0,0V43.6z"/>
		</g>
	</g>
</g>
</svg>
