<svg width="100" height="100" viewBox="0 0 100 100" fill="none" xmlns="http://www.w3.org/2000/svg">
<mask id="mask0_824_525" style="mask-type:luminance" maskUnits="userSpaceOnUse" x="0" y="0" width="100" height="100">
<path d="M50 100C77.6142 100 100 77.6142 100 50C100 22.3858 77.6142 0 50 0C22.3858 0 0 22.3858 0 50C0 77.6142 22.3858 100 50 100Z" fill="white"/>
</mask>
<g mask="url(#mask0_824_525)">
<path d="M50 100C77.6142 100 100 77.6142 100 50C100 22.3858 77.6142 0 50 0C22.3858 0 0 22.3858 0 50C0 77.6142 22.3858 100 50 100Z" fill="#74E655"/>
</g>
<mask id="mask1_824_525" style="mask-type:luminance" maskUnits="userSpaceOnUse" x="0" y="0" width="100" height="100">
<path d="M50 100C77.6142 100 100 77.6142 100 50C100 22.3858 77.6142 0 50 0C22.3858 0 0 22.3858 0 50C0 77.6142 22.3858 100 50 100Z" fill="white"/>
</mask>
<g mask="url(#mask1_824_525)">
<path d="M121.967 169.188C120.732 166.123 119.519 163.035 118.284 159.969C117.115 157.014 116.078 154.477 114.535 151.698C113.895 150.552 113.035 149.074 112.307 147.927C108.866 141.575 105.404 135.245 101.963 128.893C99.7793 124.879 97.5958 120.865 95.4123 116.851C93.9787 114.226 92.5451 111.579 91.4423 108.778C90.0969 105.316 89.2809 101.676 88.5531 98.0151C88.0237 95.3243 87.5164 92.6336 86.9651 89.9648C85.3991 90.6706 83.8332 91.3764 82.2672 92.1042C78.9148 93.6702 75.5844 95.3023 72.2319 96.8241C74.7904 104.257 77.5694 111.601 81.4071 118.461C88.2663 130.701 98.434 140.362 106.727 151.676C107.036 152.095 106.903 153.308 106.925 153.838C107.014 155.536 106.881 157.234 107.08 158.911C107.3 160.609 107.675 162.307 108.271 163.917C108.535 164.645 109.241 165.329 109.991 164.667C110.057 164.623 110.123 164.579 110.19 164.513C110.939 163.719 110.939 162.638 110.895 161.623C110.851 160.477 110.895 159.374 111.403 158.315C111.535 158.028 111.778 157.764 112.086 157.698C112.285 157.653 112.483 157.698 112.66 157.764C113.277 157.984 113.741 158.359 114.115 158.822C114.314 159.065 114.49 159.352 114.645 159.638C114.799 159.903 114.932 160.19 115.064 160.477C115.218 160.829 115.373 161.182 115.549 161.513C115.571 161.579 115.615 161.645 115.659 161.712C115.681 161.778 115.726 161.844 115.748 161.888C115.946 162.285 116.145 162.682 116.343 163.057C116.696 163.763 117.071 164.491 117.424 165.196C117.733 165.814 118.063 166.454 118.372 167.071C118.924 168.152 119.519 169.387 120.49 170.159C121.195 170.799 122.364 170.203 121.967 169.188Z" fill="#FFCFCA"/>
<path d="M29.974 71.0186C18.9683 71.0186 8.42569 105.756 8.16103 106.197C7.94047 106.594 -13.9607 138.817 -14.0269 138.884C-14.0269 138.884 -21.4596 146.36 -23.2682 148.61C-24.4812 150.132 -25.7605 151.72 -26.5545 153.506C-27.3926 155.403 -27.8998 157.432 -28.4292 159.417C-28.5174 159.726 -28.6056 160.057 -28.5615 160.366C-28.4953 160.939 -27.8557 161.446 -27.2823 161.182C-26.0251 160.608 -25.584 158.954 -25.2091 157.763C-24.8562 156.638 -24.5915 155.491 -24.0622 154.433C-23.5328 153.396 -22.7609 152.646 -21.8346 151.94C-21.1729 151.433 -20.5333 150.926 -19.8496 150.441C-19.5849 150.264 -19.3202 150.066 -19.0335 149.933C-18.6365 149.735 -18.2395 149.603 -17.7984 149.625C-17.4234 149.647 -16.8941 149.823 -16.6956 150.154C-16.453 150.507 -16.7177 150.926 -16.8721 151.235C-17.0485 151.61 -17.3132 151.963 -17.5778 152.293C-18.041 152.867 -18.5483 153.418 -18.835 154.08C-18.8791 154.19 -18.9232 154.3 -18.9453 154.433C-19.2761 155.712 -18.3057 157.587 -16.8721 156.418C-16.5633 156.175 -16.3207 155.844 -16.0781 155.536C-14.9091 154.036 -13.4314 152.779 -12.5712 151.102C-12.0198 150.022 -11.5787 148.897 -11.1597 147.772C-10.3436 145.677 -10.0128 144.397 -9.85838 143.383L-9.83632 143.339C-9.65988 143.206 10.2563 125.341 22.0119 109.329C24.7689 105.58 31.5179 90.8245 34.7821 80.1055C35.532 77.944 32.0252 73.1579 29.974 71.0186Z" fill="#FFCFCA"/>
<path d="M45.8316 46.2504C49.162 47.9487 52.5365 49.5146 55.9551 51.0585C56.9917 51.5217 58.0283 51.9849 59.1091 52.2054L59.3296 58.4251L59.5281 63.7625C59.3296 63.8949 59.1091 64.0051 58.8885 64.0934C57.874 66.6518 55.3817 68.4604 52.4703 68.4604C49.3384 68.4604 46.6918 66.3651 45.8537 63.4979C45.7875 63.4758 45.7213 63.4538 45.6552 63.4317C45.6552 63.167 45.6552 62.9024 45.6552 62.6157C45.6111 62.2628 45.5669 61.9099 45.5669 61.557C45.5669 61.2261 45.589 60.8733 45.6331 60.5645C45.6331 60.1013 45.6331 59.6381 45.6331 59.175C45.6331 57.3885 45.6111 55.624 45.4346 53.8375C45.3684 53.2861 45.3023 52.7568 45.2141 52.2275C45.0156 50.8821 44.7288 49.5587 44.4421 48.2354C44.1995 47.1547 43.9789 46.0519 43.7363 44.9712C44.4421 45.5446 45.0597 45.8534 45.8316 46.2504Z" fill="#FFCFCA"/>
<path d="M65.9905 35.5317C65.6376 39.8546 63.7408 44.0672 60.653 47.1109C59.2415 48.5004 57.5873 49.6693 55.7346 50.3751C53.7055 51.1691 51.5 51.4117 49.3165 51.3014C48.0372 51.2353 46.736 51.0368 45.567 50.5295C44.1555 49.9119 42.9644 48.8753 41.8617 47.7946C39.9869 45.9419 38.2446 43.9349 36.9653 41.619C35.6861 39.3253 34.848 36.7227 34.8701 34.0981C34.8701 33.1938 34.9803 32.2895 35.3112 31.4735C35.7743 30.3707 36.6345 29.4885 37.5167 28.6945C40.4281 26.0478 43.8467 23.8643 47.6182 22.8277C51.5441 21.747 55.6905 21.8793 59.7487 22.0337C60.7854 22.0778 61.7117 22.2763 62.5498 22.9159C63.2335 23.4452 63.5864 24.3275 63.9614 25.0994C64.9759 27.1726 65.6596 29.4223 65.9243 31.7161C66.0787 32.9953 66.1008 34.2745 65.9905 35.5317Z" fill="#534741"/>
<path d="M59.352 58.4251C55.5364 57.5649 51.8531 56.1754 48.5007 54.2345C47.4199 53.617 46.3172 52.9553 45.2585 52.2275C45.06 50.8821 44.7733 49.5587 44.4865 48.2354C44.2439 47.1547 44.0234 46.0519 43.7808 44.9712C44.4424 45.5667 45.0379 45.8534 45.8319 46.2725C49.1623 47.9707 52.5368 49.5367 55.9554 51.0806C56.9921 51.5437 58.0287 52.0069 59.1094 52.2275L59.352 58.4251Z" fill="#F9BFBB"/>
<path d="M65.5492 33.5022C65.3066 32.5317 65.0199 31.5833 64.6891 30.679C63.6304 27.7677 61.6675 25.099 59.0428 23.3125C54.0142 19.9159 46.9784 20.754 42.9202 25.2092C41.9498 26.2679 41.1778 27.481 40.6264 28.7823C39.259 31.9803 39.1928 35.421 39.9427 38.7514C40.6044 41.6848 41.8836 44.5079 43.4716 47.0002C44.4421 48.522 45.5889 49.9556 46.9343 51.1907C47.7063 51.8965 48.5444 52.5361 49.4707 53.0875C51.3013 54.1903 53.3525 54.874 55.4698 54.9622C57.3887 55.0284 59.3516 54.5211 60.9837 53.5066C62.8144 52.3597 63.9171 50.5952 64.7111 48.6764C66.6741 43.9124 66.7844 38.4867 65.5492 33.5022Z" fill="#FFCFCA"/>
<path d="M44.3541 45.9856C42.5235 46.912 40.2077 46.7576 38.5094 45.6327C37.0758 44.6623 36.1274 43.0081 35.9951 41.2878C35.973 40.979 35.973 40.6702 35.9951 40.3394C36.0392 39.788 36.1936 39.2366 36.4582 38.7514C37.1199 37.5604 38.5314 36.8546 39.8768 36.9649C41.2443 37.0752 42.4794 37.9574 43.1411 39.1484L43.6042 41.773L44.3541 45.9856Z" fill="#FFCFCA"/>
<path d="M50.0884 29.8853C53.1541 29.3118 56.2419 28.6281 59.1532 27.5253C61.5132 26.6431 64.1378 24.9448 64.7774 22.3864C65.5714 19.1883 62.8806 16.7402 60.2119 15.483C54.9847 13.0348 48.5224 13.4759 43.7584 16.7622C40.8691 18.7693 38.6856 21.7468 37.6931 25.0772C37.1197 26.974 36.8771 29.8632 39.1268 30.7455C41.7293 31.7821 44.9715 30.8116 47.6182 30.3485C48.4122 30.1941 49.2503 30.0397 50.0884 29.8853Z" fill="#534741"/>
<path d="M32.4437 30.5467C32.7083 28.5617 33.5906 26.7311 35.2006 25.7165C37.5385 24.2168 41.0895 24.6358 42.501 27.1943C43.4274 28.8484 43.4494 30.9878 43.1847 32.8184C43.0745 33.6786 42.8319 34.5388 42.3687 35.2887C42.0599 35.7959 41.0233 37.0752 40.3175 36.9869C40.0749 36.9428 39.8323 36.9208 39.6338 36.8987C39.5897 36.8987 39.5456 36.8987 39.5235 36.8987C38.8177 36.8987 38.134 37.0752 37.5165 37.4281C37.0533 37.6707 36.6783 38.0236 36.4137 38.4426C35.5315 39.391 34.2081 37.7368 33.745 37.0531C32.6422 35.3548 32.1349 32.8405 32.4437 30.5467Z" fill="#534741"/>
<path d="M78.1434 102.448C78.1213 102.47 78.0992 102.47 78.0551 102.492C78.8932 116.563 79.4005 144.64 80.4592 156.484C64.0278 155.469 39.7225 156.396 25.2761 154.631C24.8791 147.419 25.2761 130.326 27.2611 107.741C27.4596 105.514 27.6802 103.242 27.9449 100.904C27.9449 100.838 27.9669 100.75 27.9669 100.683L27.9449 100.661C25.8055 99.2056 23.4235 97.8823 21.0194 96.6031C17.689 94.7945 14.3366 93.0521 11.6237 91.0009C11.3811 90.8245 14.7777 84.9798 14.9321 84.671C19.5637 75.0107 27.5699 64.7769 38.5977 62.4169C39.2373 62.2846 45.5893 61.5567 45.5893 61.27C45.5893 61.3582 45.5893 61.4685 45.5893 61.5567C45.5893 65.3724 48.6771 68.4601 52.4927 68.4601C56.3083 68.4601 59.3961 65.3724 59.3961 61.5567C59.3961 61.4685 59.3961 61.3803 59.3961 61.2921C65.1747 62.461 70.6886 65.0856 75.1658 68.8792C79.2241 72.3419 82.4662 76.731 84.6056 81.6273C85.0026 82.5316 85.3776 83.4579 85.7084 84.3843C87.142 88.244 88.2448 92.1919 89.4579 96.1178C88.0242 97.1765 86.4142 98.2131 84.738 99.1836C82.6427 100.375 80.4151 101.477 78.1434 102.448Z" fill="#397272"/>
<path d="M77.9667 89.5016C78.2093 93.8025 77.9225 98.1254 78.1431 102.426C80.3928 101.478 82.6424 100.353 84.7377 99.162C83.7232 98.1033 82.8409 96.9123 82.1352 95.6331C80.4369 92.5453 79.7311 89.0385 78.8048 85.664C77.8564 82.2674 76.6433 79.0473 74.1069 76.5991C76.7536 80.3045 77.702 84.9582 77.9667 89.5016Z" fill="#306664"/>
<path d="M51.8748 32.797C52.1395 32.775 52.4262 32.797 52.6908 32.8191C53.1761 32.8632 53.6613 32.9073 54.1465 32.9293C54.3009 32.9514 54.4994 32.9293 54.5656 32.797C54.6097 32.7308 54.5876 32.6426 54.5656 32.5765C54.4553 32.2897 54.1024 32.2015 53.8157 32.1574C53.0658 32.0692 52.2938 32.1133 51.5881 32.4C51.4557 32.4662 50.6838 32.8191 50.7279 32.9955C50.772 33.1499 51.7204 32.797 51.8748 32.797Z" fill="#211A17"/>
<path d="M62.3952 32.4659C62.1306 32.4659 61.8439 32.5101 61.5792 32.5321C61.094 32.5983 60.6308 32.6865 60.1456 32.7527C59.9912 32.7747 59.7927 32.7747 59.7045 32.6424C59.6604 32.5762 59.6604 32.488 59.7045 32.4218C59.7927 32.1351 60.1456 32.0248 60.4323 31.9587C61.1601 31.8043 61.9541 31.8043 62.6599 32.0469C62.7922 32.091 63.6083 32.3998 63.5642 32.5762C63.5201 32.7306 62.5496 32.4659 62.3952 32.4659Z" fill="#211A17"/>
<path d="M61.5351 45.1478C60.9838 46.5593 59.9913 47.5298 58.8003 47.618C57.6313 47.7062 56.5285 46.9784 55.7786 45.7653C55.2493 44.9272 54.8964 43.8685 54.7861 42.6775L55.0067 42.6555L61.7336 42.1041L61.9763 42.082C62.0424 43.2069 61.888 44.2655 61.5351 45.1478Z" fill="#CE7872"/>
<path d="M61.7118 42.1265C60.9619 43.2513 59.815 44.0232 58.4917 44.1335C57.1684 44.2438 55.9112 43.6704 54.9849 42.6779L61.7118 42.1265Z" fill="white"/>
<path d="M61.5353 45.1475C60.9839 46.559 59.9914 47.5295 58.8004 47.6177C57.6315 47.7059 56.5287 46.9781 55.7788 45.765C56.1096 45.5445 56.4405 45.368 56.8154 45.1916C57.852 44.7284 59.021 44.5299 60.1238 44.7064C60.609 44.7946 61.0942 44.949 61.5353 45.1475Z" fill="#EA8C8B"/>
<path d="M54.5437 37.1414C54.5657 38.0677 54.0805 38.8176 53.4189 38.8397C52.7792 38.8617 52.2279 38.1339 52.2058 37.2076C52.1837 36.2812 52.669 35.5313 53.3306 35.5093C53.9702 35.4872 54.5216 36.2151 54.5437 37.1414Z" fill="#211A17"/>
<path d="M53.706 36.6124C53.331 36.6345 53.3531 37.2079 53.728 37.2079C54.0809 37.1859 54.0809 36.5904 53.706 36.6124Z" fill="white"/>
<path d="M60.7849 36.9434C60.807 37.8697 61.3583 38.5755 61.998 38.5755C62.6376 38.5535 63.1449 37.8036 63.1228 36.8772C63.1007 35.9509 62.5493 35.2451 61.9097 35.2451C61.2481 35.2892 60.7628 36.0391 60.7849 36.9434Z" fill="#211A17"/>
<path d="M62.3066 36.1714C61.9316 36.1934 61.9537 36.7669 62.3286 36.7669C62.7036 36.7448 62.6815 36.1714 62.3066 36.1714Z" fill="white"/>
<path d="M58.778 39.0165C58.4031 38.7297 57.8076 38.7297 57.4326 39.0606L58.4692 40.8691C58.756 40.8471 58.9986 40.6045 59.1088 40.3398C59.3073 39.8766 59.175 39.3032 58.778 39.0165Z" fill="#CE7872"/>
<path d="M49.559 39.1044C47.8386 39.2147 46.5153 40.4498 46.6256 41.8613C46.7358 43.2729 48.1915 44.2874 49.9118 44.1772C51.6322 44.0669 52.9555 42.8318 52.8452 41.4202C52.735 40.0087 51.2793 38.9941 49.559 39.1044Z" fill="#F9BFBB"/>
<path d="M66.1225 39.9647C66.0784 39.1707 65.2403 38.5972 64.2698 38.6634C63.2994 38.7296 62.5716 39.4133 62.6157 40.2073C62.6598 41.0013 63.4979 41.5747 64.4683 41.5086C65.4388 41.4424 66.1887 40.7366 66.1225 39.9647Z" fill="#F9BFBB"/>
<path d="M30.5912 83.7451C29.2899 89.3031 28.4077 94.9714 27.9445 100.662C25.8051 99.2061 23.4231 97.8827 21.019 96.6035C21.7248 96.1183 22.4306 95.589 23.0923 95.0376C25.4743 93.0526 27.5695 90.6265 28.7826 87.7592C29.4002 86.3477 29.6648 84.9361 30.5912 83.7451Z" fill="#306664"/>
</g>
</svg>
