<svg width="100" height="100" viewBox="0 0 100 100" fill="none" xmlns="http://www.w3.org/2000/svg">
<mask id="mask0_824_465" style="mask-type:luminance" maskUnits="userSpaceOnUse" x="0" y="0" width="100" height="100">
<path d="M50 100C77.6142 100 100 77.6142 100 50C100 22.3858 77.6142 0 50 0C22.3858 0 0 22.3858 0 50C0 77.6142 22.3858 100 50 100Z" fill="white"/>
</mask>
<g mask="url(#mask0_824_465)">
<path d="M50 100C77.6142 100 100 77.6142 100 50C100 22.3858 77.6142 0 50 0C22.3858 0 0 22.3858 0 50C0 77.6142 22.3858 100 50 100Z" fill="#74E655"/>
</g>
<mask id="mask1_824_465" style="mask-type:luminance" maskUnits="userSpaceOnUse" x="0" y="0" width="100" height="100">
<path d="M50 100C77.6142 100 100 77.6142 100 50C100 22.3858 77.6142 0 50 0C22.3858 0 0 22.3858 0 50C0 77.6142 22.3858 100 50 100Z" fill="white"/>
</mask>
<g mask="url(#mask1_824_465)">
<path d="M85.4653 75.6287V75.6066C83.9214 71.5263 81.1645 67.7548 78.0988 64.667C74.7463 61.2925 71.9232 58.3592 70.8425 53.529C70.0264 49.9339 70.0485 46.2286 69.9823 42.5453C69.8941 36.5903 69.3206 30.1942 65.9461 25.1214C62.9907 20.6662 58.1826 17.6445 52.779 17.5563C45.8315 17.446 39.2368 21.6366 35.73 27.5475C32.0247 33.7892 31.6497 41.1337 28.9589 47.7504C27.4592 51.4558 24.9448 54.742 22.8495 58.1386C19.7618 63.1011 16.0344 67.9974 14.6008 73.7319C11.3145 86.9873 18.5046 101.213 31.1645 106.242C32.3555 106.727 33.5906 107.102 34.8257 107.389C35.3992 107.521 35.9726 107.631 36.5461 107.742C45.3021 109.219 54.1905 108.094 62.704 105.735C67.7106 104.345 72.6731 102.492 76.9078 99.4708C84.4067 94.1554 88.8839 84.6715 85.4653 75.6287Z" fill="#603813"/>
<path d="M144.839 113.123C143.405 112.814 141.972 112.527 140.538 112.263C138.884 111.954 137.23 111.689 135.598 111.336C135.487 111.314 135.223 111.226 135.223 111.072C135.223 111.006 135.289 110.962 135.333 110.939C135.487 110.895 135.708 110.961 135.862 111.006C137.009 111.314 138.156 111.513 139.325 111.711C140.34 111.866 141.354 112.064 142.369 112.263C143.075 112.417 143.824 112.66 144.552 112.704C145.06 112.748 145.611 112.616 145.787 112.064C146.317 110.476 143.141 110.057 142.214 109.859C139.347 109.241 136.524 108.513 133.657 107.94C133.392 107.896 133.127 107.874 132.907 107.741C132.863 107.719 132.819 107.675 132.797 107.631C132.775 107.565 132.841 107.499 132.885 107.455C133.282 107.08 133.833 106.925 134.319 106.727C134.98 106.44 135.73 106.109 136.281 105.602C136.678 105.227 136.987 104.609 136.656 104.102C136.392 103.683 135.862 103.441 135.355 103.418C134.738 103.396 134.12 103.617 133.547 103.838C132.245 104.345 130.922 104.808 129.577 105.227C128.341 105.624 127.04 105.646 125.805 106.087C124.989 106.374 124.217 106.749 123.489 107.19C123.18 107.08 104.433 97.9928 95.9639 96.2945L81.2969 76.2681C80.6573 76.9738 80.0177 77.6796 79.356 78.3854C77.5695 80.3263 75.8271 82.2892 74.0406 84.2301C73.4672 84.8256 72.9158 85.4432 72.3423 86.0387C72.1218 86.3254 71.9012 86.6342 71.6807 86.9209C76.9078 93.3832 85.686 104.235 88.3106 107.433C88.487 107.852 88.7296 108.16 89.0825 108.359C98.1474 113.101 120.887 113.674 121.24 113.851C121.482 113.961 121.681 114.314 121.857 114.535C122.078 114.799 122.32 115.042 122.563 115.262C123.07 115.726 123.599 116.167 124.173 116.564C125.254 117.314 126.423 117.887 127.658 118.284C128.408 118.527 129.202 118.615 129.974 118.703C131.628 118.902 133.282 119.166 134.936 119.365C136.59 119.563 138.266 119.541 139.921 119.475C140.538 119.453 141.332 119.431 141.685 118.835C141.906 118.46 141.817 117.997 141.42 117.777C141.023 117.578 140.516 117.6 140.075 117.578C139.568 117.534 139.083 117.512 138.575 117.468C137.715 117.402 136.877 117.358 136.017 117.291C135.62 117.269 135.157 117.336 134.76 117.159C134.539 117.071 134.782 116.85 134.914 116.828C135.179 116.762 135.51 116.85 135.774 116.894C136.105 116.939 136.436 116.961 136.789 117.005C137.472 117.071 138.134 117.137 138.818 117.181C140.141 117.269 141.442 117.358 142.766 117.424C143.119 117.446 143.472 117.468 143.824 117.38C144.464 117.247 145.28 116.497 144.751 115.814C144.486 115.461 143.979 115.417 143.538 115.395C142.06 115.373 140.604 115.262 139.127 115.108C138.399 115.02 137.671 114.932 136.943 114.843C136.59 114.799 136.215 114.733 135.862 114.689C135.73 114.667 135.157 114.667 135.113 114.49C135.046 114.248 135.532 114.292 135.642 114.292C136.656 114.424 137.671 114.535 138.686 114.667C140.384 114.865 142.082 115.086 143.78 115.284C144.596 115.373 146.251 115.792 146.603 114.733C146.978 113.63 145.633 113.299 144.839 113.123Z" fill="#FFCFCA"/>
<path d="M89.8982 85.9949C86.0385 90.4501 82.8184 93.6261 78.8925 98.0152C78.4293 97.5079 77.9662 96.9785 77.525 96.4713C75.8929 94.5965 74.5475 92.8762 74.5034 92.81C74.5034 92.81 73.3124 120.446 73.0919 121.438C72.739 123.225 76.4884 137.054 75.6944 137.848C65.4827 148.059 35.443 145.258 29.8409 134.252C29.2013 132.973 39.2366 118.637 39.2366 118.637C39.2366 118.637 35.1122 105.426 33.061 97.7505C32.2229 94.6407 31.6494 92.4572 31.6494 92.413C31.4289 93.0747 31.0539 94.8171 30.4584 96.8242C28.4514 96.2287 15.2401 93.4496 13.8506 92.81C18.5264 78.0107 24.4814 70.5339 27.2163 68.3504C29.1572 66.8065 41.9053 61.9984 56.1532 63.0571C64.1594 63.6526 73.6874 67.2697 75.2974 68.7253C79.3115 72.3866 85.6856 80.503 89.8982 85.9949Z" fill="#FBB03B"/>
<path d="M59.5941 67.2257C58.756 69.9164 55.9109 70.556 53.3965 70.534C50.6175 70.5119 46.9563 69.8723 45.9858 66.8287C45.3021 64.7334 45.7873 62.3293 45.8094 60.1899C45.8094 58.7563 45.7653 57.3227 45.655 55.8891C45.5888 55.0069 45.4786 54.1467 45.3683 53.2645C45.258 52.5587 45.1477 51.8529 45.0154 51.1692C44.9272 50.706 44.839 50.2208 44.7287 49.7576C44.6625 49.4268 44.2655 48.5446 44.6405 48.324C44.9933 48.1255 45.6991 48.7431 46.0079 48.9195C50.3087 51.5 54.8081 53.7718 59.4397 55.6906C59.6162 55.7568 59.8147 55.845 59.925 56.0214C60.0353 56.1758 60.0353 56.3743 60.0353 56.5728C60.0353 58.0726 60.0353 59.5724 60.0353 61.0942C60.0353 61.6897 60.0573 62.2632 60.0573 62.8587C60.0794 64.3143 60.0573 65.792 59.5941 67.2257Z" fill="#FFCFCA"/>
<path d="M60.0353 62.8145C56.0211 61.7118 52.1394 60.0576 48.6325 57.852C47.6621 57.2345 46.6475 56.5949 45.655 55.8891C45.5888 55.0069 45.4786 54.1467 45.3683 53.2645C45.258 52.5587 45.1477 51.8529 45.0154 51.1692C44.9272 50.706 44.839 50.2208 44.7287 49.7576C44.6625 49.4268 44.2655 48.5446 44.6405 48.324C44.9933 48.1255 45.6991 48.7431 46.0079 48.9195C50.3087 51.5 54.8081 53.7718 59.4397 55.6906C59.6162 55.7568 59.8147 55.845 59.925 56.0214C60.0353 56.1758 60.0353 56.3743 60.0353 56.5728C60.0353 58.0726 60.0353 59.5724 60.0353 61.0942C60.0132 61.6456 60.0353 62.2411 60.0353 62.8145Z" fill="#F9BFBB"/>
<path d="M66.7186 50.9041C65.8584 52.9994 64.6674 54.9182 62.7044 56.1533C60.962 57.234 58.8888 57.7854 56.8377 57.6972C54.5659 57.609 52.4045 56.815 50.4636 55.6019C49.5152 55.0064 48.6109 54.2786 47.7949 53.5066C46.3833 52.1392 45.1703 50.5512 44.1557 48.875C42.4795 46.1401 41.1341 43.0302 40.4724 39.8322C40.3842 39.4572 40.318 39.0823 40.2739 38.7073C39.7446 35.4211 39.9651 32.0686 41.3105 28.9367C41.906 27.5252 42.7441 26.2018 43.7808 25.0549C48.1257 20.2027 55.6025 19.3646 60.9179 23.1361C63.6969 25.0991 65.7481 28.0545 66.8509 31.2305C67.2038 32.2451 67.5126 33.2817 67.7552 34.3403C67.7993 34.5168 67.8434 34.7153 67.8875 34.8917C69.0123 40.1851 68.7697 45.8975 66.7186 50.9041Z" fill="#FFCFCA"/>
<path d="M55.7123 41.1773C55.4256 41.1993 55.0286 40.7362 54.9183 40.0745C54.8521 39.7216 54.8962 39.3687 55.0065 39.104C55.0506 39.0158 55.1609 38.7953 55.3374 38.7732H55.3594C55.6461 38.7512 56.0431 39.2143 56.1534 39.876C56.2196 40.2289 56.1755 40.5818 56.0652 40.8464C56.0211 40.9347 55.9108 41.1552 55.7344 41.1773C55.7344 41.1773 55.7344 41.1773 55.7123 41.1773Z" fill="#1F3C49"/>
<path d="M64.2697 40.3397C64.0271 40.3618 63.6301 39.9427 63.5199 39.259C63.4537 38.9061 63.4978 38.5753 63.6081 38.3106C63.6963 38.1341 63.8066 38.0018 63.9169 38.0018H63.9389C64.1815 37.9798 64.5785 38.3988 64.6888 39.0825C64.755 39.4354 64.7109 39.7663 64.6006 40.0309C64.5124 40.2074 64.4021 40.3397 64.2918 40.3397H64.2697Z" fill="#1F3C49"/>
<path d="M59.9688 41.9057C60.1893 41.6631 60.5643 41.5528 60.9171 41.619C61.27 41.6852 61.6229 41.9278 61.7773 42.2807C61.9538 42.6115 61.9758 43.0306 61.8214 43.3614C61.667 43.6922 61.3582 43.9348 61.0495 43.979C61.27 43.7584 61.4024 43.4937 61.4685 43.2291C61.5126 42.9644 61.4685 42.7218 61.3583 42.5012C61.248 42.2807 61.0715 42.1042 60.8289 41.994C60.5863 41.8837 60.2996 41.8396 59.9688 41.9057Z" fill="#1F3C49"/>
<path d="M55.7126 36.2374C55.6906 36.2374 55.6685 36.2374 55.6244 36.2374C55.3156 36.1492 54.9627 36.1051 54.6098 36.1492C54.5657 36.1492 54.5216 36.1712 54.4775 36.1712C54.1687 36.2153 53.8599 36.3256 53.6173 36.48C53.5953 36.5021 53.5732 36.5021 53.5512 36.5021C53.5291 36.5021 53.507 36.5021 53.485 36.5021C53.4409 36.48 53.3747 36.458 53.3527 36.4138C53.2865 36.3256 53.3306 36.1933 53.4188 36.1492C53.7276 35.9727 54.0584 35.8404 54.4113 35.7963C54.4554 35.7963 54.5216 35.7742 54.5657 35.7742C54.9627 35.7301 55.3597 35.7742 55.7347 35.8845C55.8449 35.9066 55.889 36.0168 55.867 36.1271C55.867 36.1712 55.8008 36.2153 55.7126 36.2374Z" fill="#1F3C49"/>
<path d="M62.4617 35.0465C62.4397 35.0465 62.4397 35.0465 62.4176 35.0245C62.3735 35.0024 62.3515 34.9583 62.3294 34.9142C62.2853 34.8039 62.3294 34.6936 62.4397 34.6495C62.9249 34.429 63.4983 34.3848 64.0497 34.4951C64.0938 34.4951 64.138 34.5172 64.2041 34.5172C64.3365 34.5613 64.4688 34.5833 64.5791 34.6495C64.6673 34.6936 64.7335 34.8039 64.6893 34.9142C64.6452 35.0024 64.557 35.0465 64.4688 35.0245C64.4467 35.0245 64.4467 35.0245 64.4247 35.0024C64.3144 34.9583 64.2041 34.9142 64.0938 34.8921C64.0497 34.8921 64.0056 34.8701 63.9836 34.8701C63.5204 34.7818 63.0352 34.826 62.6161 35.0024C62.55 35.0465 62.5058 35.0465 62.4617 35.0465Z" fill="#1F3C49"/>
<path d="M55.5581 39.1924C55.139 39.1042 55.0067 39.7438 55.4258 39.832C55.8448 39.9202 55.9771 39.2806 55.5581 39.1924Z" fill="white"/>
<path d="M64.2261 38.3545C63.807 38.2663 63.6747 38.9059 64.0937 38.9941C64.5128 39.0824 64.6451 38.4427 64.2261 38.3545Z" fill="white"/>
<path d="M65.1526 45.1694C65.2629 46.3163 65.0644 47.419 64.6233 48.3674C63.8954 49.8672 62.5721 50.9479 60.94 51.1023C59.2858 51.2788 57.7199 50.4406 56.7053 49.0732C56.1098 48.2571 55.7128 47.2646 55.6025 46.1619C55.6025 46.1177 55.6025 46.0736 55.6025 46.0295L65.1526 45.0591C65.1526 45.1032 65.1526 45.1473 65.1526 45.1694Z" fill="#D55454"/>
<path d="M64.7556 45.104C63.8072 46.3391 62.3074 47.2213 60.565 47.3978C58.8226 47.5742 57.1685 47.0228 55.9995 45.9862L64.7556 45.104Z" fill="white"/>
<path d="M64.623 48.3677C63.8952 49.8675 62.5719 50.9482 60.9397 51.1026C59.2856 51.279 57.7196 50.4409 56.7051 49.0735C58.2931 48.5441 59.9693 48.2574 61.6455 48.2133C62.638 48.1692 63.6305 48.2354 64.623 48.3677Z" fill="#F37C7C"/>
<path d="M55.183 43.8017C55.2491 44.8824 54.1022 45.8308 52.6245 45.919C51.1468 46.0072 49.9117 45.1912 49.8455 44.0884C49.7793 43.0077 50.9262 42.0593 52.4039 41.971C53.8817 41.9049 55.1388 42.7209 55.183 43.8017Z" fill="#F9BFBB"/>
<path d="M67.6223 42.0379C67.6664 42.7657 66.8945 43.4053 65.8799 43.4715C64.8874 43.5156 64.0493 42.9642 64.0052 42.2364C63.9611 41.5085 64.7331 40.8689 65.7476 40.8027C66.7401 40.7366 67.5782 41.288 67.6223 42.0379Z" fill="#F9BFBB"/>
<path d="M68.0411 34.8477C65.4165 34.0758 62.7698 32.3775 60.6525 29.8852C60.3657 29.5544 60.1011 29.2235 59.8585 28.8706C58.2264 32.2893 54.918 35.4432 50.5069 37.3179C46.9339 38.8177 43.2727 39.2368 40.0967 38.7074C39.5673 35.377 39.7879 31.9805 41.1333 28.8265C41.7288 27.3929 42.5889 26.0475 43.6256 24.9006C48.0367 20.0043 55.6017 19.1441 60.9833 22.9597C63.7844 24.9447 65.8796 27.9443 67.0045 31.1644C67.3574 32.179 67.6661 33.2376 67.9088 34.3184C67.9529 34.4728 67.997 34.6492 68.0411 34.8477Z" fill="#603813"/>
<path d="M46.4495 47.552C44.663 48.7871 42.2148 49.0077 40.2519 48.0814C38.5977 47.2874 37.3405 45.6994 36.9435 43.9129C36.8773 43.582 36.8332 43.2512 36.8112 42.9203C36.7891 42.3248 36.8553 41.7293 37.0538 41.178C37.5611 39.8105 38.9285 38.8621 40.3842 38.7518C41.8399 38.6636 43.2735 39.3915 44.1557 40.5604L45.0379 43.2512L46.4495 47.552Z" fill="#FFCFCA"/>
<path d="M60.0136 63.0571C59.793 64.9539 59.5063 66.9389 58.0286 68.3063C56.7052 69.4973 54.8746 70.0046 53.1322 69.9826C51.3016 69.9605 49.4489 69.365 47.9712 68.3063C46.295 67.0933 45.7877 65.0642 45.7215 63.0792C45.6995 62.1528 44.2438 62.1528 44.2659 63.0792C44.332 65.3729 44.9496 67.777 46.8243 69.2327C48.6108 70.6222 50.8605 71.3941 53.1322 71.4162C55.2716 71.4382 57.4772 70.7545 59.0652 69.3209C60.8517 67.6888 61.2266 65.3288 61.4913 63.0571C61.5574 62.1308 60.1018 62.1528 60.0136 63.0571Z" fill="#F15A24"/>
<path d="M27.8561 158.8C27.9444 159.197 28.0326 159.594 28.0326 159.991C27.9885 161.843 25.9373 161.38 25.1654 160.255C25.0992 160.145 25.033 160.035 24.9669 159.925C24.9448 159.88 24.9227 159.836 24.9007 159.792C24.8125 159.594 24.7242 159.373 24.6801 159.153C24.5699 158.712 24.5037 158.248 24.4155 157.785C24.3272 157.366 24.239 156.947 24.0626 156.55C24.0185 156.462 23.9964 156.374 23.9523 156.285C23.8861 156.153 23.82 156.021 23.7097 155.91C23.6876 155.866 23.6435 155.844 23.5994 155.822C23.5553 155.8 23.5112 155.778 23.4671 155.756C23.445 155.756 23.423 155.734 23.4009 155.734C23.3789 155.734 23.3568 155.712 23.3347 155.712C23.2245 155.69 23.0921 155.712 22.9598 155.756C22.9157 155.778 22.8716 155.778 22.8275 155.8C22.7613 155.822 22.6951 155.866 22.629 155.91C22.5849 155.933 22.5407 155.955 22.4966 155.999C22.3864 156.065 22.2981 156.153 22.232 156.219C22.0335 156.418 21.9011 156.638 21.8129 156.881C21.7467 157.035 21.7026 157.19 21.6806 157.344C21.6144 157.653 21.5703 157.984 21.5482 158.315C21.4821 159.153 21.46 159.991 21.4159 160.807C21.4159 160.917 21.4159 161.005 21.3939 161.116C21.3497 161.998 21.4159 162.836 21.7026 163.652C21.7467 163.806 21.8129 163.961 21.8791 164.137C22.3422 165.24 23.048 166.21 23.6876 167.203C24.2611 168.129 25.0771 169.298 25.0551 170.445C25.0551 170.644 25.033 170.842 24.9669 171.041C24.8786 171.349 24.636 171.548 24.3714 171.614C24.0846 171.68 23.7538 171.636 23.5112 171.482C23.2465 171.305 23.048 171.019 22.8716 170.754C21.6806 169.011 20.4675 167.313 19.5632 165.416C18.681 163.63 17.5782 159.109 17.2033 157.168C16.6519 154.3 14.4684 138.663 13.8508 132.245C12.5937 119.1 13.5641 110.322 14.8875 103.176C15.2624 101.102 16.1226 97.3088 16.9827 93.6255C20.6881 94.5298 26.599 95.809 29.3118 96.4707L26.1137 109.395C26.1137 109.395 24.8345 126.422 24.3052 132.421C23.82 137.847 22.4966 144.089 22.3864 145.699C23.1362 146.493 23.9302 147.618 25.1874 149.911C25.7829 150.992 26.3564 152.051 26.8195 153.198C27.4591 154.984 27.4591 156.947 27.8561 158.8Z" fill="#FFCFCA"/>
<path d="M36.4356 80.1938C36.3915 80.5467 35.5754 88.7955 34.8255 91.9936C34.3623 94.0006 33.6786 96.0739 33.039 97.728C32.2009 94.6182 31.6274 92.4347 31.6274 92.3906C31.6274 92.3906 33.833 87.9795 35.024 84.5829C36.1709 81.4069 36.4135 80.3262 36.4356 80.1938Z" fill="#F7A037"/>
<path d="M77.5037 96.4494C75.8716 94.5747 74.5262 92.8543 74.4821 92.7882C74.4821 92.7882 74.6806 86.1715 74.4821 83.4145C74.3498 81.606 72.9162 75.5628 72.8721 75.3643C72.9823 75.5407 76.2466 81.4737 77.0847 85.3775C77.9007 89.2372 77.7684 93.5381 77.5037 96.4494Z" fill="#F7A037"/>
</g>
</svg>
